<svg xmlns="http://www.w3.org/2000/svg" width="256" height="256" viewBox="0 0 24 24"><path fill="#34A853" d="M12 22h5.5q.425 0 .713-.288T18.5 21V9h-13v12q0 .825.588 1.413T7.5 23H12v-1z"/><path fill="#4285F4" d="M21.5 9h-19v1.5q0 .275.175.513t.425.337L5.5 13h13l2.4-1.65q.25-.1.425-.337T21.5 10.5V9z"/><path fill="#EA4335" d="m16.5 6l-2-2l-2 2l2 2zM5.5 9V3.5q0-.425.288-.713T6.5 2.5h11q.425 0 .713.288T18.5 3.5V9h-13z"/><path fill="#FBBC04" d="m12 15l-1.4-1.4l-1.4 1.4l1.4 1.4z"/><path fill="#4285F4" d="M12 2.5V9h6.5V3.5q0-.425-.288-.713T17.5 2.5H12z"/><path fill="#1A73E8" d="M5.5 21V9h6.5v13H7.5q-.825 0-1.413-.588T5.5 21m6.5-6l1.4-1.4l1.4 1.4l-1.4 1.4z"/></svg>